<svg width="263" height="65" viewBox="0 0 263 65" fill="none" xmlns="http://www.w3.org/2000/svg">
<path d="M114.828 36.7026L114.904 32.6134C113.917 33.5978 112.172 34.128 108.53 34.8095C102.915 35.8697 101.094 37.46 101.094 40.6406C101.094 43.4425 102.764 44.8056 105.874 44.8056C110.958 44.8056 114.752 41.095 114.828 36.7026ZM124.768 50.8639H115.587C115.283 49.9551 115.055 48.6678 114.98 47.5318C112.627 50.1067 108.682 51.8484 103.674 51.8484C95.176 51.8484 91.2305 47.6833 91.2305 41.625C91.2305 30.8716 98.4387 29.66 108.378 28.2969C113.31 27.6153 114.676 26.6308 114.676 24.0561C114.676 21.6328 112.248 20.1939 108.378 20.1939C103.902 20.1939 102.081 22.39 101.625 25.722H92.4444C92.5962 17.9978 96.8453 12.6211 108.834 12.6211C120.67 12.6211 124.768 17.922 124.768 27.3123V50.8639Z" fill="#F3F3F3"/>
<path d="M152.793 37.3842H162.733C161.67 46.0173 154.614 51.8484 145.584 51.8484C135.417 51.8484 128.437 45.1086 128.437 31.7803C128.437 18.4522 135.417 12.6211 145.888 12.6211C155.6 12.6211 162.201 18.1492 162.808 26.9337H152.869C152.337 23.0716 149.53 20.7997 145.812 20.7997C141.639 20.7997 138.224 23.4503 138.224 31.5531C138.224 39.6561 141.639 43.594 145.509 43.594C149.378 43.594 152.413 41.3978 152.793 37.3842Z" fill="#F3F3F3"/>
<path d="M199.263 50.8638H189.93V45.6385C187.35 49.8794 183.48 51.8483 178.322 51.8483C170.886 51.8483 165.65 46.32 165.65 38.1415V13.6055H175.513V36.6269C175.513 41.3221 177.638 43.594 181.812 43.594C186.82 43.594 189.475 40.0347 189.475 35.1122V13.6055H199.263V50.8638Z" fill="#F3F3F3"/>
<path d="M213.456 50.8639H203.593V13.6056H212.85V18.0736C216.112 13.0755 219.906 12.6211 223.928 12.6211H225.218V22.693C224.307 22.5416 223.397 22.4658 222.486 22.4658C216.416 22.4658 213.456 25.4948 213.456 31.4775V50.8639Z" fill="#F3F3F3"/>
<path d="M244.03 43.594C250.024 43.594 253.06 39.8076 253.06 32.2347C253.06 24.6619 250.024 20.9512 244.03 20.9512C238.035 20.9512 235.001 24.6619 235.001 32.2347C235.001 39.8076 238.035 43.594 244.03 43.594ZM244.03 51.8484C231.966 51.8484 224.833 43.8212 224.833 32.2347C224.833 20.4211 232.193 12.6211 244.03 12.6211C255.715 12.6211 262.999 20.3453 262.999 32.2347C262.999 44.0484 255.638 51.8484 244.03 51.8484Z" fill="#F3F3F3"/>
<path d="M32.755 5.23378L0.956093 55.6856C-2.03454 60.4304 2.46944 66.3401 7.84974 64.7295L35.8483 55.9953C40.0157 54.6953 44.4826 54.6953 48.65 55.9953L76.6485 64.7295C82.0288 66.3401 86.5329 60.4304 83.5422 55.6856L51.7433 5.23378C47.3454 -1.74459 37.154 -1.74459 32.755 5.23378Z" fill="white"/>
<path d="M48.6516 55.9952L76.6502 64.7293C82.0305 66.34 86.5344 60.4304 83.5437 55.6854L80.7738 51.2916C77.7875 46.5543 71.9604 44.4441 66.626 46.1682L37.7773 55.4913C41.3743 54.7257 45.1201 54.8936 48.6516 55.9952Z" fill="#92A2AF"/>
</svg>
